<?xml version="1.0" encoding="UTF-8" standalone="no"?>
<svg
   viewBox="0 0 448 512"
   version="1.1"
   id="svg1"
   sodipodi:docname="8664938_trash_can_delete_remove_icon.svg"
   inkscape:version="1.3.2 (091e20e, 2023-11-25, custom)"
   xmlns:inkscape="http://www.inkscape.org/namespaces/inkscape"
   xmlns:sodipodi="http://sodipodi.sourceforge.net/DTD/sodipodi-0.dtd"
   xmlns="http://www.w3.org/2000/svg"
   xmlns:svg="http://www.w3.org/2000/svg">
  <defs
     id="defs1" />
  <sodipodi:namedview
     id="namedview1"
     pagecolor="#505050"
     bordercolor="#ffffff"
     borderopacity="1"
     inkscape:showpageshadow="0"
     inkscape:pageopacity="0"
     inkscape:pagecheckerboard="1"
     inkscape:deskcolor="#505050"
     inkscape:zoom="1.6835938"
     inkscape:cx="223.92575"
     inkscape:cy="256"
     inkscape:window-width="1920"
     inkscape:window-height="1051"
     inkscape:window-x="-9"
     inkscape:window-y="-9"
     inkscape:window-maximized="1"
     inkscape:current-layer="svg1" />
  <path
     d="M432 80h-82.38l-34-56.75C306.1 8.827 291.4 0 274.6 0H173.4C156.6 0 141 8.827 132.4 23.25L98.38 80H16C7.125 80 0 87.13 0 96v16C0 120.9 7.125 128 16 128H32v320c0 35.35 28.65 64 64 64h256c35.35 0 64-28.65 64-64V128h16C440.9 128 448 120.9 448 112V96C448 87.13 440.9 80 432 80zM171.9 50.88C172.9 49.13 174.9 48 177 48h94c2.125 0 4.125 1.125 5.125 2.875L293.6 80H154.4L171.9 50.88zM352 464H96c-8.837 0-16-7.163-16-16V128h288v320C368 456.8 360.8 464 352 464zM224 416c8.844 0 16-7.156 16-16V192c0-8.844-7.156-16-16-16S208 183.2 208 192v208C208 408.8 215.2 416 224 416zM144 416C152.8 416 160 408.8 160 400V192c0-8.844-7.156-16-16-16S128 183.2 128 192v208C128 408.8 135.2 416 144 416zM304 416c8.844 0 16-7.156 16-16V192c0-8.844-7.156-16-16-16S288 183.2 288 192v208C288 408.8 295.2 416 304 416z"
     id="path1"
     style="stroke:#ffffff;stroke-opacity:1;fill:#ffffff;fill-opacity:1" />
</svg>
